
        -= Pink Floyd =-

-------------------------------------

1969 - Soundtrack From The Film More [Oh By The Way 2007 Remaster]

-------------------------------------

Track List

01. Cirrus Minor [5:18]
02. The Nile Song [3:27]
03. Crying Song [3:34]
04. Up The Khyber [2:13]
05. Green Is The Colour [2:59]
06. Cymbaline [4:50]
07. Party Sequence [1:07]
08. Main Theme [5:28]
09. Ibiza Bar [3:19]
10. More Blues [2:13]
11. Quicksilver [7:14]
12. A Spanish Piece [1:05]
13. Dramatic Theme [2:15]

Total Files - 13
The total duration - [45:01]
-------------------------------------

rip by KroMvEL

EAC LOG:

Exact Audio Copy V0.99 prebeta 4 from 23. January 2008

EAC extraction logfile from 16. October 2008, 21:58

Pink Floyd / Soundtrack From The Film "More"

Used drive : BENQ DVD DD DW1640 Adapter: 1 ID: 1

Read mode : Secure
Utilize accurate stream : Yes
Defeat audio cache : Yes
Make use of C2 pointers : No

Read offset correction : 618
Overread into Lead-In and Lead-Out : No
Fill up missing offset samples with silence : Yes
Delete leading and trailing silent blocks : No
Null samples used in CRC calculations : Yes
Used interface : Installed external ASPI interface

Used output format : Internal WAV Routines
Sample format : 44.100 Hz; 16 Bit; Stereo


TOC of the extracted CD

 Track | Start | Length | Start sector | End sector 
 ---------------------------------------------------------
 1 | 0:00.00 | 5:18.15 | 0 | 23864 
 2 | 5:18.15 | 3:26.70 | 23865 | 39384 
 3 | 8:45.10 | 3:33.52 | 39385 | 55411 
 4 | 12:18.62 | 2:12.53 | 55412 | 65364 
 5 | 14:31.40 | 2:58.52 | 65365 | 78766 
 6 | 17:30.17 | 4:50.23 | 78767 | 100539 
 7 | 22:20.40 | 1:07.07 | 100540 | 105571 
 8 | 23:27.47 | 5:28.00 | 105572 | 130171 
 9 | 28:55.47 | 3:19.10 | 130172 | 145106 
 10 | 32:14.57 | 2:12.45 | 145107 | 155051 
 11 | 34:27.27 | 7:13.48 | 155052 | 187574 
 12 | 41:41.00 | 1:05.07 | 187575 | 192456 
 13 | 42:46.07 | 2:15.10 | 192457 | 202591 


Range status and errors

Selected range

 Filename I:Music LosslessPink Floyd - Soundtrack From The Film MorePink Floyd - Soundtrack From The Film More.wav

 Peak level 100.0 %
 Range quality 100.0 %
 Test CRC E12048EF
 Copy CRC E12048EF
 Copy OK

No errors occurred


AccurateRip summary

Track 1 accurately ripped (confidence 31) [4E3A0519]
Track 2 accurately ripped (confidence 31) [3AF434E2]
Track 3 accurately ripped (confidence 31) [447BB628]
Track 4 accurately ripped (confidence 31) [332A306E]
Track 5 accurately ripped (confidence 31) [15F22C13]
Track 6 accurately ripped (confidence 31) [A077F94B]
Track 7 accurately ripped (confidence 31) [8C926A9B]
Track 8 accurately ripped (confidence 31) [E43B1DB2]
Track 9 accurately ripped (confidence 31) [53C226C0]
Track 10 accurately ripped (confidence 31) [30FF939A]
Track 11 accurately ripped (confidence 31) [1C11813E]
Track 12 accurately ripped (confidence 32) [33A44989]
Track 13 accurately ripped (confidence 31) [35767FE2]

All tracks accurately ripped

End of status report